<svg width="134" height="52" viewBox="0 0 134 52" fill="none" xmlns="http://www.w3.org/2000/svg">
<path d="M103.781 20.6241C104.459 16.7877 106.969 13.0715 109.46 13.0715C109.46 13.0715 112.209 13.0715 110.994 18.6108C110.775 19.6325 110.456 20.6441 110.038 21.6158C109.689 21.5857 109.33 21.6358 108.992 21.756C108.653 21.8762 108.344 22.0665 108.075 22.3169C107.766 22.6274 107.567 23.0381 107.527 23.4588C107.437 23.9897 107.527 24.5306 107.776 24.9814C107.099 25.7326 106.172 26.2034 105.196 26.3036C103.412 26.3036 103.094 24.4505 103.781 20.6141V20.6241ZM12.812 1.35199C11.6364 1.91292 10.401 2.30357 9.14573 2.50391C8.99629 2.53396 8.85681 2.61409 8.73726 2.71426C8.6177 2.81443 8.52804 2.94464 8.46826 3.09489C8.28894 3.55566 7.48196 5.84948 7.25282 6.45049C7.18308 6.63079 7.05357 6.78104 6.89416 6.89122C6.73476 7.0014 6.54547 7.05149 6.36614 7.03145C5.51932 6.97135 2.30138 6.55065 1.87298 6.5206C1.70362 6.51059 1.54421 6.55065 1.39477 6.63079C1.24533 6.71092 1.11582 6.84114 1.03612 6.99139C0.418432 8.30357 0.059776 9.71593 0 11.1383C0.0199253 11.3086 0.089664 11.4689 0.199253 11.5991C0.308843 11.7293 0.458283 11.8094 0.627648 11.8395C0.956416 11.8996 3.84559 12.3303 4.17436 12.3704C4.28395 12.3904 4.39353 12.4305 4.4832 12.5006C4.57286 12.5607 4.65256 12.6508 4.71234 12.751C4.77212 12.8512 4.802 12.9613 4.81197 13.0815C4.82193 13.2017 4.81197 13.3219 4.77212 13.4321C1.64384 23.4087 1.60399 29.9496 10.132 29.9496C17.2254 29.9496 23.1433 20.9246 26.1719 12.3203C26.7697 12.8712 27.3276 13.4522 27.8456 14.0732C28.025 14.3236 28.1047 14.6341 28.0947 14.9547C28.0847 15.2752 27.9752 15.5857 27.7759 15.8562C25.8133 18.5406 18.9191 28.8779 27.9353 29.9496C31.213 30.3303 34.152 28.3269 36.6427 25.4221C36.7124 27.3353 37.629 29.7994 41.883 29.7994C45.5294 29.7994 48.1794 26.9547 49.8731 24.2702C49.8034 24.5106 48.289 29.7994 52.6826 29.7994C54.8843 29.7994 57.3451 28.0665 59.3675 26.1133C59.1882 26.7443 59.0089 27.3854 58.8196 28.0365C58.7299 28.3269 58.7598 28.6375 58.8793 28.8979C59.0089 29.1583 59.228 29.3486 59.507 29.4488C60.9516 30.0098 62.5755 29.9697 64.0599 29.3286C64.2293 29.2485 64.3688 29.1383 64.4883 28.9981C64.6079 28.8578 64.6975 28.6875 64.7374 28.5173C65.0263 27.4755 65.7635 24.9413 66.8993 21.4154H66.9391C67.4672 26.2134 70.0574 29.7994 74.7299 29.7994C78.1272 29.7994 81.0064 27.776 83.4174 24.7109C83.776 27.8461 85.3302 29.9597 88.8769 29.9597C92.4236 29.9597 95.1833 27.9062 97.5942 24.8311C98.1023 28.2769 99.9554 29.9597 103.861 29.9597C106.7 29.8895 109.51 28.8879 111.841 27.0949C111.841 27.0849 111.831 27.0849 111.831 27.0749C111.432 26.1834 111.263 25.1917 111.323 24.18C111.422 22.6375 112.07 21.155 113.146 19.9931C114.222 18.8311 115.647 18.0999 117.161 17.9096H117.201C117.241 17.6191 117.271 17.3386 117.29 17.0682C117.759 9.45549 110.546 9.45549 110.546 9.45549C103.681 9.45549 98.202 14.8946 97.5444 20.6441C95.6615 23.5991 93.4398 25.943 91.0787 26.2936C87.1833 26.8845 88.6179 20.1734 91.1086 13.1917C91.1584 13.0515 91.258 12.9213 91.3775 12.8311C91.4971 12.741 91.6465 12.6909 91.796 12.6909C93.5793 12.6909 95.3726 12.5607 97.1658 12.2902C97.2854 12.2702 97.395 12.2201 97.4946 12.15C97.5942 12.0799 97.6739 11.9797 97.7238 11.8695C98.0824 11.0982 98.2717 10.2668 98.3116 9.42544C98.3116 9.32528 98.3016 9.23513 98.2717 9.14498C98.2418 9.05483 98.192 8.97469 98.1223 8.91459C98.0525 8.85449 97.9828 8.80441 97.8931 8.76434C97.8035 8.72428 97.7138 8.71426 97.6241 8.72428C96.3688 8.81443 95.0538 8.83446 93.7487 8.82444C93.6391 8.82444 93.5295 8.79439 93.4299 8.74431C93.3302 8.69423 93.2505 8.61409 93.2007 8.52394C93.1409 8.43379 93.111 8.32361 93.1011 8.21342C93.1011 8.10324 93.1111 7.99306 93.1609 7.88287C93.6789 6.48054 94.2866 5.10825 94.9541 3.756C95.0139 3.6358 95.0438 3.50558 95.0538 3.38538C95.0637 3.26518 95.0538 3.12494 95.004 3.01476C94.9641 2.89456 94.8944 2.79439 94.8047 2.69423C94.715 2.60408 94.6154 2.53396 94.4959 2.49389C93.1011 1.91292 91.5369 1.78271 90.0027 2.11326C89.8533 2.14331 89.7138 2.21342 89.5942 2.30357C89.4747 2.39372 89.3751 2.52394 89.3053 2.66418C88.3788 4.38705 87.6017 6.19005 86.994 8.04314C86.9342 8.19339 86.8346 8.32361 86.7051 8.41376C86.5755 8.50391 86.4161 8.54398 86.2567 8.53396C85.5494 8.48388 85.0014 8.43379 84.6527 8.41376C84.5133 8.39372 84.3738 8.42377 84.2443 8.49389C84.1148 8.56401 84.0151 8.66418 83.9454 8.79439C83.527 9.59573 83.3476 10.4972 83.4373 11.3687C83.4473 11.5089 83.507 11.6491 83.5967 11.7493C83.6864 11.8495 83.8159 11.9196 83.9554 11.9497C84.2343 12.0098 84.5133 12.0598 84.7823 12.1099C84.8719 12.13 84.9616 12.16 85.0413 12.2101C85.121 12.2602 85.1808 12.3303 85.2306 12.4104C85.2804 12.4906 85.3103 12.5807 85.3202 12.6809C85.3202 12.781 85.3202 12.8812 85.2904 12.9714C84.4635 15.6859 83.8458 18.4405 83.4373 21.2151C81.4946 24.2902 79.3725 25.7827 76.9516 26.1433C74.2517 26.544 72.319 23.579 72.2393 19.4221C74.3115 18.4104 76.1845 17.0081 77.7685 15.2952C79.3526 13.5824 80.5979 11.5891 81.4448 9.42544C81.5344 9.20508 81.5344 8.95466 81.4448 8.73429C81.3551 8.51393 81.2057 8.34364 80.9965 8.25349C79.5419 7.66251 77.8881 7.64247 76.3439 8.19339C76.1845 8.24347 76.035 8.33362 75.9155 8.46384C75.7959 8.58404 75.7063 8.74431 75.6664 8.90458C73.9927 14.7944 69.918 16.3069 69.111 16.5473C69.0512 16.5673 68.7523 16.6475 68.5132 16.7076C69.7287 12.751 73.3451 4.33696 73.5942 3.78605C73.654 3.6358 73.6839 3.48554 73.6739 3.32528C73.6639 3.16501 73.6241 3.02478 73.5444 2.89456C73.4746 2.76434 73.3651 2.65416 73.2355 2.57403C73.106 2.49389 72.9665 2.45383 72.8071 2.44381C71.8109 2.55399 70.8545 2.93463 70.0276 3.55566C69.2405 3.98638 68.4036 4.2969 67.5369 4.45716C67.4173 4.4772 67.2978 4.5373 67.2081 4.62745C67.1185 4.7176 67.0388 4.81776 66.9989 4.93796C66.9491 5.04815 66.9192 5.15833 66.8893 5.26852C66.8594 5.32862 66.8495 5.3787 66.8196 5.42878C64.5082 10.7677 62.4759 16.2168 60.7224 21.736C58.8793 24.2702 56.9665 25.9029 55.6216 25.9029C53.37 25.9029 55.9403 19.2017 56.7971 17.1183C56.8768 16.9279 56.8868 16.7276 56.837 16.5373C56.7872 16.347 56.6676 16.1867 56.5182 16.0765C55.3027 15.2852 53.8083 14.9947 52.3339 15.2451C52.1645 15.2752 51.9951 15.3453 51.8557 15.4555C51.7162 15.5657 51.5966 15.7059 51.5269 15.8662C45.0512 29.539 42.421 26.9547 42.959 22.8578C43.4771 18.7009 47.8507 13.1917 51.8058 13.1917C54.0176 13.2118 56.1496 13.8228 57.9927 14.9446C58.1521 15.0448 58.3513 15.0849 58.5406 15.0749C58.7299 15.0648 58.9192 14.9847 59.0886 14.8645C59.5169 14.534 59.9055 14.1433 60.2243 13.7126C60.3538 13.5223 60.4335 13.2919 60.4335 13.0615C60.4335 12.8311 60.3737 12.6108 60.2542 12.4305C59.5369 11.3787 57.5842 9.34531 52.9516 9.34531C47.1931 9.34531 38.8046 14.3336 37.0711 21.9163C29.9278 31.1316 27.2479 25.5523 31.8606 19.2318C34.3114 15.8762 35.1981 14.5039 31.5617 11.4388C27.9353 8.36368 28.9714 8.17336 29.091 6.35032C29.2006 4.52728 25.8133 2.80441 24.2093 6.83112C23.9303 7.50224 23.8307 8.22344 23.9104 8.91459C24.0001 9.61576 24.269 10.2568 24.6974 10.7977C22.5854 16.4371 17.1756 25.5924 12.3139 26.3236C8.40849 26.9146 10.3213 19.8528 12.802 12.8812C12.8518 12.741 12.9515 12.6108 13.071 12.5206C13.2005 12.4305 13.35 12.3804 13.4994 12.3804C15.2927 12.3804 17.086 12.2502 18.8792 11.9797C18.9888 11.9597 19.0984 11.9096 19.1981 11.8395C19.2977 11.7694 19.3674 11.6692 19.4172 11.559C19.9054 10.4271 20.2441 9.24514 20.4235 8.04314C20.4235 7.94297 20.4135 7.85282 20.3836 7.76267C20.3537 7.67252 20.3039 7.59239 20.2342 7.53229C20.1644 7.47219 20.0947 7.4221 20.005 7.38204C19.9154 7.35199 19.8257 7.33195 19.736 7.34197C18.4907 7.41209 17.1657 7.44214 15.8606 7.44214C15.751 7.44214 15.6414 7.41209 15.5517 7.362C15.4521 7.31192 15.3724 7.23179 15.3226 7.14164C15.2628 7.05149 15.2329 6.9413 15.2229 6.83112C15.2229 6.72094 15.2329 6.61075 15.2827 6.50057C15.8805 5.03813 16.8568 2.35366 17.1358 1.68254C17.2055 1.50224 17.2454 1.31192 17.2354 1.1216C17.2254 0.931288 17.1756 0.750987 17.076 0.59072C16.9863 0.430453 16.8568 0.300236 16.6974 0.200069C16.538 0.099902 16.3687 0.0498185 16.1794 0.0297852H16.0797C14.9041 0.200069 13.7784 0.660837 12.7921 1.39206" fill="white"/>
<path d="M113.256 24.17C113.206 25.0415 113.405 25.8829 113.833 26.6041C114.262 27.3253 114.899 27.8862 115.667 28.2168C116.434 28.5473 117.29 28.6375 118.137 28.4672C118.984 28.2969 119.771 27.8762 120.419 27.2652C121.056 26.6542 121.515 25.8729 121.734 25.0214C121.953 24.17 121.923 23.2886 121.644 22.4872C121.365 21.6859 120.857 21.0048 120.18 20.5239C119.502 20.0431 118.685 19.7827 117.838 19.7827C117.27 19.7827 116.703 19.8929 116.175 20.1133C115.637 20.3336 115.148 20.6542 114.72 21.0649C114.292 21.4755 113.943 21.9563 113.704 22.4872C113.455 23.0181 113.305 23.5891 113.275 24.17" fill="#2CE77B"/>
<path d="M104.23 43.773C101.182 43.773 99 41.7596 99 38.4641C99 35.1686 101.142 33.1753 104.23 33.1753C107.319 33.1753 109.421 35.1486 109.421 38.3539C109.421 38.6344 109.401 38.9249 109.361 39.2053H102.557C102.626 40.4073 103.274 40.8881 104.081 40.8881C104.778 40.8881 105.167 40.4975 105.366 40.0768H109.202C108.724 42.2003 106.801 43.783 104.23 43.783V43.773ZM102.577 37.4424H105.755C105.755 36.5209 105.037 36.02 104.21 36.02C103.384 36.02 102.746 36.5008 102.577 37.4424Z" fill="#2CE77B"/>
<path d="M114.701 33.1653C116.056 33.1653 117.122 33.7763 117.69 34.7179V30H121.306V43.6528H117.69V42.2104C117.162 43.1319 116.126 43.783 114.681 43.783C112.24 43.783 110.298 41.7696 110.298 38.4741C110.298 35.1786 112.24 33.1853 114.701 33.1853V33.1653ZM115.837 36.3205C114.811 36.3205 113.964 37.0618 113.964 38.4641C113.964 39.8664 114.811 40.6177 115.837 40.6177C116.863 40.6177 117.71 39.8664 117.71 38.4641C117.71 37.0618 116.843 36.3205 115.837 36.3205Z" fill="#2CE77B"/>
<path d="M133.889 43.6429H130.273V42.1704C129.685 43.0519 128.599 43.7431 127.154 43.7431C124.773 43.7431 123.289 42.0502 123.289 39.3157V33.3057H126.866V38.8549C126.866 40.0569 127.543 40.7581 128.569 40.7581C129.595 40.7581 130.273 40.0569 130.273 38.8549V33.3057H133.889V43.6529V43.6429Z" fill="#2CE77B"/>
</svg>
