<svg width="134" height="52" viewBox="0 0 134 52" fill="none" xmlns="http://www.w3.org/2000/svg">
<g clip-path="url(#clip0_1671_112166)">
<path d="M104.556 20.6241C105.238 16.7877 107.767 13.0715 110.277 13.0715C110.277 13.0715 113.047 13.0715 111.822 18.6108C111.602 19.6325 111.28 20.6441 110.859 21.6158C110.507 21.5857 110.146 21.6358 109.805 21.756C109.464 21.8762 109.152 22.0665 108.882 22.3169C108.57 22.6274 108.37 23.0381 108.329 23.4588C108.239 23.9897 108.329 24.5306 108.58 24.9814C107.898 25.7326 106.964 26.2034 105.981 26.3036C104.184 26.3036 103.863 24.4505 104.556 20.6141V20.6241ZM12.9076 1.35199C11.7232 1.91292 10.4786 2.30357 9.21398 2.50391C9.06342 2.53396 8.9229 2.61409 8.80246 2.71426C8.68201 2.81443 8.59168 2.94464 8.53146 3.09489C8.35079 3.55566 7.5378 5.84948 7.30694 6.45049C7.23669 6.63079 7.1062 6.78104 6.94561 6.89122C6.78502 7.0014 6.59432 7.05149 6.41365 7.03145C5.5605 6.97135 2.31855 6.55065 1.88696 6.5206C1.71633 6.51059 1.55574 6.55065 1.40518 6.63079C1.25463 6.71092 1.12415 6.84114 1.04385 6.99139C0.421554 8.30357 0.0602221 9.71593 0 11.1383C0.020074 11.3086 0.0903331 11.4689 0.20074 11.5991C0.311147 11.7293 0.461702 11.8094 0.632332 11.8395C0.963553 11.8996 3.87429 12.3303 4.20551 12.3704C4.31591 12.3904 4.42632 12.4305 4.51665 12.5006C4.60699 12.5607 4.68728 12.6508 4.74751 12.751C4.80773 12.8512 4.83784 12.9613 4.84788 13.0815C4.85791 13.2017 4.84788 13.3219 4.80773 13.4321C1.65611 23.4087 1.61596 29.9496 10.2076 29.9496C17.354 29.9496 23.316 20.9246 26.3672 12.3203C26.9694 12.8712 27.5315 13.4522 28.0534 14.0732C28.2341 14.3236 28.3144 14.6341 28.3044 14.9547C28.2943 15.2752 28.1839 15.5857 27.9832 15.8562C26.0059 18.5406 19.0603 28.8779 28.1438 29.9496C31.446 30.3303 34.4069 28.3269 36.9161 25.4221C36.9864 27.3353 37.9098 29.7994 42.1956 29.7994C45.8691 29.7994 48.539 26.9547 50.2453 24.2702C50.175 24.5106 48.6494 29.7994 53.0757 29.7994C55.2939 29.7994 57.773 28.0665 59.8105 26.1133C59.6299 26.7443 59.4492 27.3854 59.2585 28.0365C59.1682 28.3269 59.1983 28.6375 59.3187 28.8979C59.4492 29.1583 59.67 29.3486 59.9511 29.4488C61.4064 30.0098 63.0425 29.9697 64.538 29.3286C64.7086 29.2485 64.8491 29.1383 64.9696 28.9981C65.09 28.8578 65.1804 28.6875 65.2205 28.5173C65.5116 27.4755 66.2543 24.9413 67.3985 21.4154H67.4387C67.9706 26.2134 70.5803 29.7994 75.2876 29.7994C78.7102 29.7994 81.6109 27.776 84.0399 24.7109C84.4012 27.8461 85.967 29.9597 89.5402 29.9597C93.1133 29.9597 95.8936 27.9062 98.3226 24.8311C98.8344 28.2769 100.701 29.9597 104.636 29.9597C107.496 29.8895 110.327 28.8879 112.675 27.0949C112.675 27.0849 112.665 27.0849 112.665 27.0749C112.264 26.1834 112.093 25.1917 112.154 24.18C112.254 22.6375 112.906 21.155 113.99 19.9931C115.074 18.8311 116.51 18.0999 118.035 17.9096H118.075C118.116 17.6191 118.146 17.3386 118.166 17.0682C118.637 9.45549 111.371 9.45549 111.371 9.45549C104.455 9.45549 98.9348 14.8946 98.2724 20.6441C96.3754 23.5991 94.1371 25.943 91.7584 26.2936C87.8339 26.8845 89.2792 20.1734 91.7885 13.1917C91.8386 13.0515 91.939 12.9213 92.0595 12.8311C92.1799 12.741 92.3305 12.6909 92.481 12.6909C94.2776 12.6909 96.0843 12.5607 97.891 12.2902C98.0114 12.2702 98.1218 12.2201 98.2222 12.15C98.3226 12.0799 98.4029 11.9797 98.453 11.8695C98.8144 11.0982 99.0051 10.2668 99.0452 9.42544C99.0452 9.32528 99.0352 9.23513 99.0051 9.14498C98.975 9.05483 98.9248 8.97469 98.8545 8.91459C98.7843 8.85449 98.714 8.80441 98.6237 8.76434C98.5333 8.72428 98.443 8.71426 98.3527 8.72428C97.088 8.81443 95.7631 8.83446 94.4483 8.82444C94.3379 8.82444 94.2275 8.79439 94.1271 8.74431C94.0267 8.69423 93.9464 8.61409 93.8962 8.52394C93.836 8.43379 93.8059 8.32361 93.7959 8.21342C93.7959 8.10324 93.8059 7.99306 93.8561 7.88287C94.378 6.48054 94.9903 5.10825 95.6628 3.756C95.723 3.6358 95.7531 3.50558 95.7631 3.38538C95.7732 3.26518 95.7631 3.12494 95.7129 3.01476C95.6728 2.89456 95.6025 2.79439 95.5122 2.69423C95.4219 2.60408 95.3215 2.53396 95.201 2.49389C93.7959 1.91292 92.2201 1.78271 90.6744 2.11326C90.5238 2.14331 90.3833 2.21342 90.2628 2.30357C90.1424 2.39372 90.042 2.52394 89.9718 2.66418C89.0383 4.38705 88.2554 6.19005 87.6432 8.04314C87.583 8.19339 87.4826 8.32361 87.3521 8.41376C87.2216 8.50391 87.061 8.54398 86.9004 8.53396C86.1878 8.48388 85.6358 8.43379 85.2845 8.41376C85.144 8.39372 85.0034 8.42377 84.873 8.49389C84.7425 8.56401 84.6421 8.66418 84.5719 8.79439C84.1503 9.59573 83.9696 10.4972 84.06 11.3687C84.07 11.5089 84.1302 11.6491 84.2206 11.7493C84.3109 11.8495 84.4414 11.9196 84.5819 11.9497C84.8629 12.0098 85.144 12.0598 85.415 12.1099C85.5053 12.13 85.5956 12.16 85.6759 12.2101C85.7562 12.2602 85.8164 12.3303 85.8666 12.4104C85.9168 12.4906 85.9469 12.5807 85.957 12.6809C85.957 12.781 85.957 12.8812 85.9268 12.9714C85.0938 15.6859 84.4715 18.4405 84.06 21.2151C82.1028 24.2902 79.9649 25.7827 77.5259 26.1433C74.8058 26.544 72.8587 23.579 72.7784 19.4221C74.8661 18.4104 76.753 17.0081 78.3489 15.2952C79.9448 13.5824 81.1994 11.5891 82.0526 9.42544C82.1429 9.20508 82.1429 8.95466 82.0526 8.73429C81.9622 8.51393 81.8117 8.34364 81.6009 8.25349C80.1355 7.66251 78.4693 7.64247 76.9136 8.19339C76.753 8.24347 76.6025 8.33362 76.482 8.46384C76.3616 8.58404 76.2712 8.74431 76.2311 8.90458C74.5449 14.7944 70.4397 16.3069 69.6267 16.5473C69.5665 16.5673 69.2654 16.6475 69.0245 16.7076C70.249 12.751 73.8925 4.33696 74.1434 3.78605C74.2036 3.6358 74.2337 3.48554 74.2237 3.32528C74.2137 3.16501 74.1735 3.02478 74.0932 2.89456C74.023 2.76434 73.9126 2.65416 73.7821 2.57403C73.6516 2.49389 73.5111 2.45383 73.3505 2.44381C72.3468 2.55399 71.3832 2.93463 70.5501 3.55566C69.7572 3.98638 68.9141 4.2969 68.0409 4.45716C67.9205 4.4772 67.8 4.5373 67.7097 4.62745C67.6193 4.7176 67.539 4.81776 67.4989 4.93796C67.4487 5.04815 67.4186 5.15833 67.3885 5.26852C67.3584 5.32862 67.3483 5.3787 67.3182 5.42878C64.9896 10.7677 62.9421 16.2168 61.1756 21.736C59.3187 24.2702 57.3916 25.9029 56.0366 25.9029C53.7683 25.9029 56.3578 19.2017 57.221 17.1183C57.3013 16.9279 57.3113 16.7276 57.2611 16.5373C57.211 16.347 57.0905 16.1867 56.94 16.0765C55.7154 15.2852 54.2099 14.9947 52.7244 15.2451C52.5538 15.2752 52.3832 15.3453 52.2426 15.4555C52.1021 15.5657 51.9817 15.7059 51.9114 15.8662C45.3874 29.539 42.7376 26.9547 43.2796 22.8578C43.8015 18.7009 48.2078 13.1917 52.1925 13.1917C54.4207 13.2118 56.5686 13.8228 58.4254 14.9446C58.586 15.0448 58.7868 15.0849 58.9775 15.0749C59.1682 15.0648 59.3589 14.9847 59.5295 14.8645C59.9611 14.534 60.3525 14.1433 60.6737 13.7126C60.8042 13.5223 60.8845 13.2919 60.8845 13.0615C60.8845 12.8311 60.8243 12.6108 60.7038 12.4305C59.9812 11.3787 58.0139 9.34531 53.3467 9.34531C47.5453 9.34531 39.0942 14.3336 37.3477 21.9163C30.1512 31.1316 27.4512 25.5523 32.0984 19.2318C34.5675 15.8762 35.4608 14.5039 31.7973 11.4388C28.1438 8.36368 29.1876 8.17336 29.3081 6.35032C29.4185 4.52728 26.0059 2.80441 24.3899 6.83112C24.1089 7.50224 24.0085 8.22344 24.0888 8.91459C24.1792 9.61576 24.4502 10.2568 24.8818 10.7977C22.7539 16.4371 17.3038 25.5924 12.4057 26.3236C8.47124 26.9146 10.3983 19.8528 12.8976 12.8812C12.9477 12.741 13.0481 12.6108 13.1686 12.5206C13.299 12.4305 13.4496 12.3804 13.6002 12.3804C15.4068 12.3804 17.2135 12.2502 19.0201 11.9797C19.1305 11.9597 19.2409 11.9096 19.3413 11.8395C19.4417 11.7694 19.5119 11.6692 19.5621 11.559C20.0539 10.4271 20.3952 9.24514 20.5759 8.04314C20.5759 7.94297 20.5658 7.85282 20.5357 7.76267C20.5056 7.67252 20.4554 7.59239 20.3852 7.53229C20.3149 7.47219 20.2447 7.4221 20.1543 7.38204C20.064 7.35199 19.9737 7.33195 19.8833 7.34197C18.6287 7.41209 17.2938 7.44214 15.9789 7.44214C15.8685 7.44214 15.7581 7.41209 15.6678 7.362C15.5674 7.31192 15.4871 7.23179 15.4369 7.14164C15.3767 7.05149 15.3466 6.9413 15.3366 6.83112C15.3366 6.72094 15.3466 6.61075 15.3968 6.50057C15.999 5.03813 16.9826 2.35366 17.2637 1.68254C17.3339 1.50224 17.3741 1.31192 17.364 1.1216C17.354 0.931288 17.3038 0.750987 17.2034 0.59072C17.1131 0.430453 16.9826 0.300236 16.822 0.200069C16.6614 0.099902 16.4908 0.0498185 16.3001 0.0297852H16.1997C15.0154 0.200069 13.8812 0.660837 12.8875 1.39206" fill="#354564"/>
<path d="M114.101 24.17C114.051 25.0415 114.251 25.8829 114.683 26.6041C115.114 27.3253 115.757 27.8862 116.53 28.2168C117.303 28.5473 118.166 28.6375 119.019 28.4672C119.872 28.2969 120.665 27.8762 121.317 27.2652C121.96 26.6542 122.421 25.8729 122.642 25.0214C122.863 24.17 122.833 23.2886 122.552 22.4872C122.271 21.6859 121.759 21.0048 121.076 20.5239C120.394 20.0431 119.571 19.7827 118.718 19.7827C118.146 19.7827 117.574 19.8929 117.042 20.1133C116.5 20.3336 116.008 20.6542 115.576 21.0649C115.145 21.4755 114.793 21.9563 114.552 22.4872C114.301 23.0181 114.151 23.5891 114.121 24.17" fill="#1DC763"/>
<path d="M104.269 45.773C101.198 45.773 99 43.7596 99 40.4641C99 37.1686 101.158 35.1753 104.269 35.1753C107.381 35.1753 109.499 37.1486 109.499 40.3539C109.499 40.6344 109.479 40.9249 109.438 41.2053H102.583C102.653 42.4073 103.306 42.8881 104.119 42.8881C104.821 42.8881 105.213 42.4975 105.414 42.0768H109.278C108.796 44.2003 106.859 45.783 104.269 45.783V45.773ZM102.603 39.4424H105.805C105.805 38.5209 105.082 38.02 104.249 38.02C103.416 38.02 102.774 38.5008 102.603 39.4424Z" fill="#1DC763"/>
<path d="M114.818 35.1653C116.183 35.1653 117.257 35.7763 117.829 36.7179V32H121.473V45.6528H117.829V44.2104C117.297 45.1319 116.254 45.783 114.798 45.783C112.339 45.783 110.382 43.7696 110.382 40.4741C110.382 37.1786 112.339 35.1853 114.818 35.1853V35.1653ZM115.963 38.3205C114.929 38.3205 114.076 39.0618 114.076 40.4641C114.076 41.8664 114.929 42.6177 115.963 42.6177C116.996 42.6177 117.85 41.8664 117.85 40.4641C117.85 39.0618 116.976 38.3205 115.963 38.3205Z" fill="#1DC763"/>
<path d="M134.15 45.6429H130.506V44.1704C129.914 45.0519 128.82 45.7431 127.365 45.7431C124.966 45.7431 123.47 44.0502 123.47 41.3157V35.3057H127.074V40.8549C127.074 42.0569 127.756 42.7581 128.79 42.7581C129.824 42.7581 130.506 42.0569 130.506 40.8549V35.3057H134.15V45.6529V45.6429Z" fill="#1DC763"/>
</g>
<defs>
<clipPath id="clip0_1671_112166">
<rect width="134" height="52" fill="white"/>
</clipPath>
</defs>
</svg>
