<?xml version="1.0" standalone="no"?>
<!DOCTYPE svg PUBLIC "-//W3C//DTD SVG 20010904//EN"
 "http://www.w3.org/TR/2001/REC-SVG-20010904/DTD/svg10.dtd">
<svg version="1.0" xmlns="http://www.w3.org/2000/svg"
 width="391.000000pt" height="391.000000pt" viewBox="0 0 391.000000 391.000000"
 preserveAspectRatio="xMidYMid meet">

<g transform="translate(0.000000,391.000000) scale(0.100000,-0.100000)"
fill="#000000" stroke="none">
<path d="M2110 3891 c-65 -21 -156 -66 -258 -128 -129 -78 -219 -111 -431
-157 -158 -34 -153 -28 -234 -296 -81 -266 -80 -263 -113 -289 -36 -29 -83
-27 -389 9 -324 39 -328 39 -369 -2 -59 -59 -114 -271 -123 -468 -5 -113 -5
-116 21 -147 14 -17 36 -33 49 -37 13 -3 133 -22 267 -41 266 -40 293 -49 308
-108 6 -21 4 -53 -5 -92 -132 -563 -166 -787 -167 -1100 0 -276 24 -411 105
-582 89 -187 267 -330 489 -393 107 -30 318 -60 419 -60 99 0 293 37 404 77
153 55 329 159 475 283 l73 62 -69 72 c-60 61 -143 173 -154 208 -2 6 -41 -17
-87 -51 -193 -143 -409 -205 -526 -152 -181 82 -210 384 -94 956 44 217 160
659 205 782 23 64 45 70 279 76 192 6 285 14 460 39 103 14 124 34 159 150 40
131 68 266 69 341 2 63 0 71 -24 91 l-27 23 -295 -5 -295 -5 -26 26 c-17 17
-26 37 -26 58 0 18 50 186 111 373 92 284 109 346 104 378 -8 44 -44 92 -86
113 -38 20 -131 18 -199 -4z"/>
<path d="M2985 1622 c-94 -28 -164 -71 -240 -147 -306 -306 -170 -816 250
-941 85 -25 220 -24 310 4 339 104 499 478 340 797 -45 91 -100 153 -183 208
-107 70 -168 89 -302 93 -89 3 -129 0 -175 -14z"/>
</g>
</svg>
