<svg width="8456" height="2030" viewBox="0 0 8456 2030" fill="none" xmlns="http://www.w3.org/2000/svg">
<path d="M1041.33 1.46643C994 7.46643 943.867 29.8665 852 85.9998C798.533 118.667 736 139.866 622 164C587.067 171.333 578 174.667 567.867 183.733C554.4 195.733 554.8 194.667 520.667 308C477.2 452.4 478.667 448.133 465.733 460C457.6 467.466 447.867 472.4 436.933 474.667C425.6 476.933 402.133 474.667 219.333 453.2C102.267 439.466 97.4666 439.2 82.6665 446.133C69.7332 452.266 61.3332 460.533 54.2665 474.4C26.6665 528.266 1.33321 647.333 0.79988 726C0.666547 750.8 0.933213 753.333 3.73321 761.733C10.6665 781.467 27.4665 796.133 47.7332 800C57.1999 801.733 139.333 814 227.333 826.8C308 838.533 310.4 839.067 322.667 850.133C341.867 867.6 345.867 887.467 336.933 921.333C323.867 970 301.733 1067.33 288.8 1132.67C239.867 1380.67 233.733 1565.6 270 1703.33C282.267 1750.27 300.933 1794.8 323.333 1830.67C376 1915.07 459.067 1972.8 570.667 2002.53C653.333 2024.53 770.267 2032.53 854 2021.87C1064.27 1995.07 1266.27 1853.33 1445.6 1606.67C1564.67 1442.93 1669.33 1239.33 1753.33 1008C1766.93 970.8 1791.87 895.733 1802 862C1806.13 848 1810 836.266 1810.53 835.733C1811.73 834.4 1888.13 904.266 1910.67 927.467C1931.2 948.533 1940.67 961.2 1946.8 975.733C1957.07 1000.4 1957.07 1029.2 1947.07 1054.4C1945.07 1059.2 1934.8 1076.27 1924 1092.53C1871.47 1172 1831.2 1241.33 1792.13 1320C1728.8 1447.33 1693.73 1552.27 1680.4 1654C1676.93 1680.8 1676.93 1745.87 1680.53 1768.67C1694.27 1857.87 1736.27 1921.87 1810.67 1966.67C1863.87 1998.8 1940.67 2020.93 2023.87 2028.13C2046.93 2030.13 2100.53 2029.07 2122.67 2026C2222.67 2012.8 2318.13 1970.4 2411.6 1897.73C2464.27 1856.8 2524.13 1798 2575.33 1736.8L2588.53 1721.07L2591.6 1740.8C2609.47 1856.93 2670.53 1939.47 2769.47 1981.2C2819.87 2002.53 2871.73 2013.07 2940.4 2015.87C3073.73 2021.6 3186.13 1982 3296 1890.67C3319.07 1871.47 3367.87 1822.27 3389.2 1796.67C3422.4 1756.8 3459.07 1705.33 3485.07 1661.73C3490.53 1652.67 3495.07 1645.33 3495.2 1645.33C3495.47 1645.33 3494.53 1650.93 3493.2 1657.73C3485.87 1695.07 3482.27 1745.47 3484 1783.07C3486.53 1833.33 3495.07 1870.53 3512.53 1906C3531.87 1945.47 3557.87 1972.53 3594.4 1991.2C3628.67 2008.67 3664.4 2016.27 3713.33 2016.27C3770.67 2016.27 3826.67 2001.73 3891.33 1970C3968.67 1932 4046.13 1874.8 4135.87 1789.47C4147.73 1778.27 4157.33 1769.6 4157.33 1770.4C4157.33 1771.07 4151.87 1795.33 4145.2 1824.13C4127.6 1900.93 4126.67 1905.47 4126.67 1917.07C4126.67 1945.87 4143.47 1973.73 4168.67 1986.93C4190.27 1998.27 4248 2012.27 4294.67 2017.47C4315.87 2019.87 4364 2019.47 4384.67 2016.8C4416.4 2012.53 4443.6 2005.73 4470.53 1995.2C4494.8 1985.73 4506.13 1979.2 4516.8 1968.67C4531.73 1953.87 4535.47 1945.2 4546 1898C4570.27 1790.93 4608.4 1636.4 4644.53 1498.8C4651.6 1472.13 4657.33 1450 4657.33 1449.73C4657.33 1449.33 4658 1449.33 4658.8 1449.6C4659.6 1449.87 4662.8 1462.67 4666 1478C4716.53 1726.8 4846.53 1905.87 5029.33 1978.4C5138.8 2021.87 5268.4 2027.73 5388.53 1994.67C5535.87 1954 5675.6 1849.2 5798.67 1686.93L5810 1672.13L5814.27 1692.8C5824.93 1744.27 5840.4 1789.87 5860.4 1829.47C5919.2 1945.6 6015.2 2009.47 6152.67 2024C6160 2024.8 6178.93 2025.73 6194.67 2026.13C6328.93 2030 6458.8 1986.53 6576.8 1898.27C6613.73 1870.67 6642.27 1845.6 6680 1807.2C6715.87 1770.8 6747.87 1733.6 6777.33 1694.27C6782.67 1687.07 6787.33 1681.6 6787.73 1682C6788.13 1682.4 6791.33 1693.87 6794.8 1707.6C6843.73 1900.67 6956.93 1999.87 7153.33 2021.87C7200.93 2027.33 7265.07 2027.87 7310.67 2023.33C7470.4 2007.47 7632.93 1943.47 7764.8 1844.53C7773.2 1838.13 7780 1832.8 7780 1832.67C7780 1832.53 7776.4 1824.93 7772.13 1815.87C7742.93 1754.53 7728.67 1680.53 7733.2 1612.53C7736.4 1563.2 7745.2 1522.8 7762.27 1479.33C7803.47 1374.67 7884.27 1290.27 7987.2 1244.8C8018.67 1230.8 8056.93 1219.33 8088.67 1214.13C8096 1212.93 8103.87 1211.6 8106.13 1211.33L8110.4 1210.53L8111.2 1198.93C8115.47 1134.53 8110.8 1068.13 8097.87 1010C8079.6 928.266 8043.2 856.933 7990.27 798.8C7917.33 718.8 7803.2 662.933 7676 644.8C7629.47 638.133 7586.67 637.733 7529.33 643.333C7330.67 662.8 7148.93 747.2 7007.47 885.333C6900.4 989.866 6823.73 1119.87 6788.67 1256.53C6778 1297.87 6772.27 1330.8 6768.53 1372.67L6766.4 1396.67L6754.27 1416.67C6638.13 1609.2 6516.4 1727.47 6394 1766.53C6365.73 1775.6 6348 1778.8 6322 1779.6C6296.13 1780.4 6285.2 1779.2 6267.33 1773.2C6221.47 1758 6190.53 1715.87 6175.47 1648C6151.33 1538.8 6170.13 1355.6 6230 1114.67C6253.73 1019.6 6288.93 894.667 6295.73 882.266C6300.4 873.6 6310.4 864.8 6319.73 861.2C6326.93 858.4 6330 858.133 6380.67 857.2C6487.47 855.2 6583.6 847.733 6684.27 833.467C6704.93 830.533 6712 829.067 6717.73 826.133C6733.07 818.667 6740 808.133 6750.53 776C6764.93 731.6 6771.33 690.266 6770.4 646.667C6770 626.133 6769.73 624.133 6766.4 617.067C6760.13 603.466 6745.73 592.4 6731.33 590.133C6728.4 589.6 6710.13 590.133 6690.67 591.2C6633.33 594.533 6562 596.266 6500 595.733L6442 595.333L6434.4 591.733C6424.67 587.2 6415.47 578 6410.93 568.266C6407.87 561.866 6407.33 558.8 6407.33 549.333C6407.33 538 6407.33 538 6431.87 469.333C6470.4 361.067 6479.2 338.133 6498.13 293.733C6507.87 270.933 6516.8 249.067 6517.87 245.2C6522.8 228.667 6519.33 205.733 6509.6 191.866C6500.27 178.4 6491.33 172.266 6468.67 163.6C6401.87 138.4 6324.53 126.4 6254.67 130.4C6216.93 132.667 6174.93 138.8 6158.67 144.667C6141.73 150.667 6130.53 162.133 6120 184.4C6115.87 193.333 6106.93 212.266 6100.13 226.4C6076.93 275.466 6060.67 319.466 6013.87 459.333C5997.47 508.4 5982.93 550.667 5981.73 553.067C5978.27 559.6 5969.6 567.333 5961.33 571.466C5950.67 576.8 5940.93 576.933 5878 572C5848 569.6 5819.87 568 5815.73 568.4C5799.47 569.866 5786.4 579.466 5778 596C5758.27 635.2 5749.07 684.8 5752.13 736.533C5754.27 771.733 5757.2 782.266 5768.27 793.333C5778.53 803.6 5785.73 805.733 5838.93 815.2C5860.53 819.067 5866.93 821.6 5876 830.133C5884.8 838.266 5889.47 848.133 5890.27 859.733C5890.8 867.333 5889.73 873.467 5882.8 901.333C5848 1043.87 5815.2 1237.33 5800.67 1387.2C5798.8 1406.27 5797.33 1424.4 5797.33 1427.47C5797.33 1434 5788.8 1448.93 5760.67 1491.33C5665.33 1635.47 5553.73 1723.07 5423.33 1756.4C5383.33 1766.67 5370.4 1768.53 5338 1768.53C5312.4 1768.53 5306.93 1768.13 5294.67 1765.6C5227.2 1750.93 5168 1707.2 5120.13 1636.67C5065.73 1556.53 5029.2 1443.47 5018 1320.67L5017.07 1311.33L5023.6 1308.13C5047.6 1296.53 5101.73 1264.27 5141.33 1238C5345.33 1102.67 5500.13 915.733 5585.6 702C5600 666 5611.07 631.2 5611.73 620C5613.33 592.933 5599.87 570 5575.2 557.6C5550.93 545.466 5514.4 534.533 5479.87 529.067C5463.07 526.533 5455.47 526.133 5418.67 526C5385.33 526 5372.93 526.533 5358.67 528.4C5312.4 534.667 5259.47 547.866 5240.93 557.6C5230.67 563.067 5220.4 573.466 5214.93 583.733C5212.4 588.533 5209.07 598.667 5206.53 608.8C5162.8 792.667 5074.93 936.533 4947.33 1033.33C4901.6 1068 4846.93 1097.73 4800 1113.33C4786.53 1117.73 4753.87 1126.67 4750.93 1126.67C4748.67 1126.67 4748.67 1126.53 4760.27 1084.13C4802.53 929.2 4895.07 654.667 5008.93 346.667C5049.07 238.266 5047.07 244.266 5047.07 230.133C5047.07 203.866 5033.07 180.933 5010.27 169.333C4998.93 163.6 4989.87 162.266 4970.67 163.066C4930.93 164.933 4892.4 180.4 4819.87 224.133C4799.07 236.667 4775.47 250.133 4767.33 254C4748.53 263.2 4719.87 274.4 4697.2 281.333C4678.8 287.067 4633.2 298.667 4629.47 298.667C4625.07 298.667 4611.07 306.533 4605.73 312.133C4599.33 318.933 4594.93 327.866 4590.13 344C4588.4 350.266 4580.8 371.866 4573.33 392C4429.2 782.533 4321.2 1122.4 4239.2 1442.67L4232.93 1467.33L4220.93 1484.67C4140 1601.6 4051.07 1690.4 3977.73 1727.73C3941.2 1746.4 3904 1753.87 3881.2 1747.2C3856.53 1740 3841.07 1717.47 3833.87 1677.87C3830.53 1659.6 3830.53 1604 3833.73 1575.33C3845.47 1475.2 3876.27 1352.53 3928.67 1197.6C3938 1170.13 3945.87 1144.53 3946.27 1140.53C3947.2 1131.73 3944.8 1118.93 3940.4 1109.73C3933.2 1094.27 3918.13 1082.53 3883.87 1065.2C3844.67 1045.6 3803.33 1033.33 3756 1027.33C3720.13 1022.8 3668.27 1023.33 3631.47 1028.67C3609.33 1032 3591.87 1042.53 3580.93 1059.07C3578.53 1062.8 3572.67 1074.93 3568 1086C3492.4 1266.93 3408.8 1434.4 3338.27 1546.67C3226.67 1724.53 3129.07 1798.53 3066.93 1752.67C3013.07 1713.07 2996.27 1582.53 3028.13 1450.67C3072 1268.53 3200.27 1078 3349.33 973.6C3415.73 927.066 3487.2 898.4 3552.53 892.133C3598.4 887.6 3678.53 893.866 3743.2 906.8C3828.53 923.866 3920.27 956.8 3990.93 995.466C4001.33 1001.2 4014.53 1008.27 4020 1010.93C4038.8 1020.4 4059.07 1020.67 4078.27 1011.47C4099.6 1001.2 4139.33 961.866 4162.53 928C4178.8 904.4 4180.8 873.6 4167.73 849.2C4157.2 829.2 4119.47 788.8 4088 763.6C4022.8 711.333 3945.73 674.933 3853.33 652.8C3766.27 631.866 3656.67 624.667 3566.93 634C3378.8 653.6 3174 738.133 3002.67 866.933C2914.53 932.933 2838.13 1008.8 2775.2 1092.27C2689.87 1205.6 2632.93 1330.4 2607.87 1459.2L2603.6 1480.67L2586.27 1504C2510.13 1606 2431.2 1689.87 2363.33 1741.33C2338.67 1760 2317.2 1773.33 2292.67 1785.47C2257.6 1802.67 2235.73 1808.53 2207.33 1808.53C2186.93 1808.53 2178 1806.67 2161.6 1798.53C2148.93 1792.4 2134.8 1779.87 2126.67 1768C2073.6 1689.87 2097.73 1533.2 2187.73 1372C2202.8 1345.07 2211.6 1331.07 2250.67 1272.67C2313.07 1179.2 2334.67 1141.07 2350 1097.33C2358.53 1073.07 2361.47 1057.87 2362.27 1034C2363.33 1000.67 2358.67 978.666 2343.33 947.333C2317.07 893.333 2270.53 843.467 2174 766.133C2051.73 668.133 2000 613.2 1984.13 564.4C1977.73 544.266 1977.33 523.866 1982.8 484C1984.27 472.667 1985.87 452.533 1986.27 439.333C1986.93 418 1986.67 414 1984.13 403.333C1971.47 350.133 1916 303.6 1854.67 294.533C1837.73 292.133 1810.4 293.6 1794.67 298C1768.4 305.067 1741.87 321.067 1720.8 342.133C1681.2 381.733 1648.27 452.133 1639.33 516.266C1636.8 534.933 1636.8 570 1639.33 587.333C1643.47 614.8 1654.27 647.2 1667.6 672C1673.2 682.667 1691.2 710.266 1700 722L1704 727.467L1692.13 762.667C1646.93 896.4 1578.67 1050.8 1504.93 1185.33C1384.27 1405.87 1254.4 1574.67 1127.73 1675.6C1060 1729.6 992.933 1763.2 926.667 1776.27C905.067 1780.53 868.533 1780.53 852.667 1776.27C796.267 1760.8 765.733 1714.27 753.733 1625.73C750.8 1604 750.4 1521.33 753.067 1492.67C764.4 1370.67 788.533 1246.93 835.467 1070C856.4 991.2 891.867 868.133 896 860C900.4 851.333 907.867 844.266 917.067 839.733L926 835.333L973.333 834.4C1049.2 832.933 1107.07 829.866 1170.67 823.866C1229.87 818.4 1305.73 808.4 1315.87 804.667C1326.13 801.067 1335.47 792.8 1340.8 782.4C1361.87 741.467 1395.87 597.466 1396.4 546.667C1396.67 532.4 1396.4 530.8 1392.8 523.067C1388.4 513.333 1377.87 502.8 1368.4 498.266C1362.67 495.6 1360.13 495.333 1342 495.466C1331.07 495.6 1308.27 496.266 1291.33 497.2C1247.87 499.2 1126.93 501.733 1095.33 501.067L1068.67 500.667L1059.73 496.266C1042.8 487.866 1032.93 472.4 1033.07 454C1033.07 445.6 1034.67 439.733 1048.53 398.667C1057.07 373.333 1075.87 316.4 1090.13 272C1104.4 227.6 1123.07 170.266 1131.6 144.667L1147.07 97.9998V84.6665C1147.2 59.9998 1139.47 40.7998 1122.67 23.9998C1102.13 3.33313 1078 -3.2002 1041.33 1.46643ZM7572.67 887.866C7612.13 898.133 7645.6 927.6 7666 970C7697.6 1035.73 7703.73 1131.2 7684.53 1256C7674.67 1319.73 7663.07 1367.87 7643.07 1428.13L7631.87 1462.27L7616.67 1463.2C7586.8 1464.93 7563.2 1470.4 7541.73 1480.67C7525.6 1488.27 7516.13 1494.67 7504.13 1506C7482.27 1526.8 7469.87 1551.6 7466.4 1581.47C7464.8 1596.27 7466.67 1631.87 7470 1646.93C7472.67 1659.47 7479.07 1675.33 7484.8 1684L7489.6 1691.33L7477.07 1703.33C7437.2 1741.6 7389.6 1768.53 7346.67 1777.33C7330.4 1780.67 7305.07 1780.93 7289.33 1777.87C7238.27 1768.27 7206.53 1729.87 7192.8 1661.33C7186.13 1628 7184.8 1610 7184.67 1556.67C7184.67 1498.13 7187.33 1459.33 7195.33 1395.73C7207.73 1298.4 7232.67 1212.53 7272.53 1130C7329.87 1011.6 7406 929.067 7486.67 898C7517.07 886.266 7551.2 882.266 7572.67 887.866Z" fill="#04183E"/>
<path d="M8053.48 1328.4C8001.06 1344.01 7962.03 1367.98 7919.65 1410.35C7749 1580.97 7824.84 1865.32 8059.06 1935.01C8106.46 1948.95 8181.74 1948.39 8231.93 1932.78C8420.98 1874.79 8510.2 1666.27 8421.53 1488.41C8396.44 1437.67 8365.77 1403.11 8319.48 1372.44C8259.81 1333.41 8225.8 1322.82 8151.07 1320.59C8101.44 1318.92 8079.13 1320.59 8053.48 1328.4Z" fill="#FE6E46"/>
</svg>
