<?xml version="1.0" standalone="no"?>
<!DOCTYPE svg PUBLIC "-//W3C//DTD SVG 20010904//EN"
 "http://www.w3.org/TR/2001/REC-SVG-20010904/DTD/svg10.dtd">
<svg version="1.0" xmlns="http://www.w3.org/2000/svg"
 width="1920.000000pt" height="1920.000000pt" viewBox="0 0 1920.000000 1920.000000"
 preserveAspectRatio="xMidYMid meet">

<g transform="translate(0.000000,1920.000000) scale(0.100000,-0.100000)"
fill="#252323" stroke="none">
<path d="M9392 12734 c-136 -16 -313 -60 -438 -107 -165 -63 -403 -194 -387
-212 4 -4 3 -5 -3 -2 -14 8 -76 -31 -174 -110 -106 -84 -251 -223 -244 -234 3
-5 1 -8 -4 -7 -6 2 -36 -26 -67 -62 -327 -374 -548 -870 -606 -1355 -24 -205
-11 -623 27 -885 57 -388 203 -779 391 -1047 102 -145 294 -336 434 -430 348
-236 755 -346 1279 -346 524 0 931 110 1279 346 140 95 331 285 435 432 188
266 333 657 390 1045 39 265 51 678 27 885 -58 486 -279 981 -606 1355 -31 36
-61 64 -67 62 -5 -1 -7 2 -4 7 12 19 -304 295 -385 337 -15 7 -30 10 -35 6 -5
-4 -5 -3 -1 2 16 20 -219 148 -387 213 -130 49 -301 90 -451 108 -154 18 -250
18 -403 -1z"/>
<path d="M9290 7214 c-19 -2 -84 -9 -145 -15 -687 -69 -1387 -324 -1959 -713
-154 -105 -146 -99 -251 -180 -232 -179 -521 -459 -693 -671 -18 -22 -39 -47
-46 -55 -32 -36 -149 -193 -212 -285 -212 -310 -400 -682 -534 -1055 l-39
-109 112 -83 c62 -46 173 -123 247 -172 74 -49 153 -101 175 -116 179 -122
728 -405 1020 -525 1360 -563 2886 -674 4315 -315 491 123 892 271 1355 499
226 112 513 270 635 351 230 152 319 213 412 282 l107 79 -39 109 c-134 373
-322 745 -534 1055 -63 92 -180 249 -212 285 -7 8 -28 33 -46 55 -199 245
-553 578 -804 755 -655 462 -1267 702 -2054 806 -118 15 -713 29 -810 18z"/>
</g>
</svg>
