<svg version="1.1" id="Layer_1" xmlns="http://www.w3.org/2000/svg" xmlns:xlink="http://www.w3.org/1999/xlink" x="0px" y="0px"
	 width="100%" viewBox="0 0 512 512" enable-background="new 0 0 512 512" xml:space="preserve">
<path fill="#F47C2C" opacity="1.000000" stroke="none" 
	d="
M0.999999,279.000000 
	C1.000000,264.645782 1.000000,250.291550 1.375184,235.264847 
	C2.816115,226.649155 3.809071,218.695343 4.961334,210.764694 
	C8.342458,187.493530 16.078165,165.555664 26.273788,144.526810 
	C35.937065,124.595917 48.100166,106.252899 62.804535,89.548462 
	C76.387436,74.118011 91.178696,60.076405 107.837830,48.089581 
	C126.196609,34.879807 146.044144,24.236706 167.267548,16.451391 
	C185.184738,9.878891 203.602951,4.981050 222.684464,2.959239 
	C226.812485,2.521848 230.895996,1.664118 235.000000,1.000000 
	C249.354233,1.000000 263.708466,1.000000 278.735168,1.375191 
	C287.351013,2.816135 295.304932,3.809052 303.235718,4.961379 
	C326.506805,8.342620 348.444641,16.078289 369.473450,26.273952 
	C389.404327,35.937271 407.747345,48.100319 424.451721,62.804714 
	C439.882111,76.387642 453.923706,91.178848 465.910492,107.837990 
	C479.120270,126.196754 489.763275,146.044281 497.548645,167.267609 
	C504.121155,185.184769 509.019012,203.602966 511.040741,222.684479 
	C511.478119,226.812515 512.335876,230.895996 513.000000,235.000000 
	C513.000000,249.354233 513.000000,263.708466 512.624817,278.735168 
	C511.836304,283.331787 511.737915,287.320190 510.953094,291.168549 
	C508.123627,305.043060 505.597809,319.012817 501.959229,332.680878 
	C496.981232,351.380310 488.900391,368.892487 479.082306,385.563782 
	C468.644745,403.287109 456.806732,419.964508 441.690308,434.054077 
	C439.325867,424.179993 436.778320,414.669495 435.251617,404.997833 
	C432.950897,390.422729 424.084015,381.227753 411.847931,374.584167 
	C382.018799,358.388550 349.401794,352.349152 315.913940,348.423096 
	C311.344147,344.602844 306.876892,341.143127 302.774384,337.294556 
	C299.678040,334.389893 296.360657,332.697601 292.068359,332.645020 
	C292.624481,322.805450 293.204956,313.394653 293.990753,303.709137 
	C297.685028,300.623444 301.287354,297.940948 304.643066,294.979004 
	C318.470367,282.774292 328.674042,268.002197 335.722168,250.974792 
	C336.293213,249.595200 338.084259,247.659851 339.188568,247.735336 
	C345.915222,248.195221 350.060303,244.478012 351.420654,238.868927 
	C354.379028,226.670807 357.042358,214.309174 358.387512,201.858932 
	C358.895569,197.156708 355.432190,192.025375 353.843201,186.650299 
	C353.772095,173.624390 353.636932,161.037857 353.690155,148.276901 
	C354.001129,147.983109 354.123749,147.863724 354.552734,147.888977 
	C357.197968,151.139267 359.536865,154.244904 362.184235,157.760193 
	C365.889496,144.922974 358.888855,136.855988 349.244995,128.743546 
	C353.818451,128.966736 356.745300,129.109589 360.199158,129.278137 
	C357.043304,117.298714 352.041168,106.761345 341.394684,99.553459 
	C341.712921,99.144676 342.031158,98.735901 342.349365,98.327126 
	C346.508820,100.239616 350.668304,102.152100 355.221924,104.245827 
	C351.122467,92.025497 342.521667,84.879631 331.400513,79.731773 
	C334.369812,80.027725 337.339142,80.323685 340.757538,80.664398 
	C335.701569,72.915039 328.739014,68.744606 320.661835,66.010757 
	C319.281799,65.543663 318.160553,64.311806 316.919769,63.433235 
	C317.856720,62.204437 318.790924,60.973530 319.732269,59.748119 
	C320.019623,59.374096 320.326691,59.015251 321.314392,57.802933 
	C311.254395,55.168247 301.724304,52.672344 290.936371,49.847023 
	C295.072571,45.979515 298.757538,42.533936 302.371704,39.154556 
	C292.621704,37.459709 282.713501,36.558952 272.973206,40.102730 
	C267.200470,42.203011 265.697754,41.662525 263.227814,36.060886 
	C242.536987,34.778553 228.760483,41.309105 221.901871,56.215973 
	C216.467896,54.739494 210.766006,53.582668 205.375320,51.585739 
	C201.857971,50.282761 199.357574,51.123833 198.682602,54.183632 
	C197.905457,57.706604 198.502090,61.532619 198.502090,65.722870 
	C196.000854,66.292336 192.215225,66.839172 188.645096,68.031364 
	C180.728363,70.675018 173.040375,73.812737 168.766174,81.938171 
	C168.680725,82.096466 168.757156,82.243927 168.833572,82.391388 
	C168.897354,82.270744 168.961136,82.150101 169.449402,82.078781 
	C172.210251,82.128098 174.546646,82.128098 177.360626,82.128098 
	C161.844193,95.881355 160.069702,98.274269 159.895050,105.343346 
	C162.605042,105.148636 165.327286,104.953041 168.157303,104.749702 
	C163.631302,110.621254 159.379425,116.137192 155.127548,121.653122 
	C155.485382,122.033592 155.843231,122.414062 156.201065,122.794540 
	C158.886932,122.515480 161.572784,122.236420 164.186218,121.964890 
	C159.332260,128.525330 154.252411,134.642670 150.032303,141.304642 
	C145.784409,148.010498 143.503067,155.567490 143.182404,164.024826 
	C147.591049,159.525757 151.605331,155.429153 156.367386,150.569427 
	C156.995544,164.439697 157.542404,176.514633 158.100922,188.955734 
	C152.943130,207.726364 156.808258,225.175644 164.339539,241.987961 
	C165.503601,244.586502 169.692276,247.360031 172.473465,247.351059 
	C176.808243,247.337097 177.726898,249.439056 179.036942,252.468597 
	C185.025146,266.316467 192.648605,279.123779 203.820511,289.491974 
	C209.164932,294.451874 214.742477,299.160583 220.251129,304.380432 
	C220.828278,314.208710 221.368729,323.639587 221.509003,333.075500 
	C217.882370,334.456635 214.313095,335.345093 211.506241,337.318146 
	C206.781754,340.639160 202.541458,344.648987 197.687943,348.371582 
	C187.092728,349.911224 176.844284,351.120087 166.734055,353.052124 
	C143.973862,357.401489 121.656624,363.225433 101.337059,374.935547 
	C89.759918,381.607391 81.286690,390.444153 78.879257,404.340637 
	C77.130402,414.435577 74.357155,424.352997 71.753891,434.149139 
	C63.612820,424.498413 55.394993,415.323425 47.983475,405.537781 
	C34.504974,387.741760 24.436163,367.977509 16.656195,347.113464 
	C9.930408,329.076508 5.055873,310.520020 2.960900,291.304565 
	C2.511305,287.180817 1.664061,283.100372 0.999999,279.000000 
z"/>
<path fill="#FFFFFF" opacity="1.000000" stroke="none" 
	d="
M441.964172,434.345551 
	C456.806732,419.964508 468.644745,403.287109 479.082306,385.563782 
	C488.900391,368.892487 496.981232,351.380310 501.959229,332.680878 
	C505.597809,319.012817 508.123627,305.043060 510.953094,291.168549 
	C511.737915,287.320190 511.836304,283.331787 512.624817,279.203827 
	C513.000000,356.927185 513.000000,434.854370 513.000000,513.000000 
	C434.979248,513.000000 356.958282,513.000000 278.601776,512.648438 
	C279.754730,512.137512 281.243256,511.978149 283.177582,511.863403 
	C291.664917,510.797119 299.786102,510.086090 307.733490,508.502808 
	C334.987823,503.073303 360.798798,493.595306 384.830719,479.579437 
	C406.005981,467.229706 425.406158,452.563629 441.964172,434.345551 
z"/>
<path fill="#FFFFFF" opacity="1.000000" stroke="none" 
	d="
M0.999999,279.468658 
	C1.664061,283.100372 2.511305,287.180817 2.960900,291.304565 
	C5.055873,310.520020 9.930408,329.076508 16.656195,347.113464 
	C24.436163,367.977509 34.504974,387.741760 47.983475,405.537781 
	C55.394993,415.323425 63.612820,424.498413 71.901634,434.423462 
	C84.730782,448.167755 98.679596,459.605438 113.637032,469.840729 
	C136.587738,485.545654 161.477188,497.242279 188.396301,504.078125 
	C202.144806,507.569366 216.344788,509.282806 230.713196,511.798523 
	C232.390442,512.198181 233.695221,512.599121 235.000000,513.000000 
	C157.072968,513.000000 79.145927,513.000000 1.000000,513.000000 
	C1.000000,435.312561 1.000000,357.624939 0.999999,279.468658 
z"/>
<path fill="#FFFFFF" opacity="1.000000" stroke="none" 
	d="
M234.531342,1.000000 
	C230.895996,1.664118 226.812485,2.521848 222.684464,2.959239 
	C203.602951,4.981050 185.184738,9.878891 167.267548,16.451391 
	C146.044144,24.236706 126.196609,34.879807 107.837830,48.089581 
	C91.178696,60.076405 76.387436,74.118011 62.804535,89.548462 
	C48.100166,106.252899 35.937065,124.595917 26.273788,144.526810 
	C16.078165,165.555664 8.342458,187.493530 4.961334,210.764694 
	C3.809071,218.695343 2.816115,226.649155 1.375184,234.796188 
	C1.000000,157.072952 1.000000,79.145912 1.000000,1.000000 
	C78.687424,1.000000 156.375061,1.000000 234.531342,1.000000 
z"/>
<path fill="#FFFFFF" opacity="1.000000" stroke="none" 
	d="
M513.000000,234.531342 
	C512.335876,230.895996 511.478119,226.812515 511.040741,222.684479 
	C509.019012,203.602966 504.121155,185.184769 497.548645,167.267609 
	C489.763275,146.044281 479.120270,126.196754 465.910492,107.837990 
	C453.923706,91.178848 439.882111,76.387642 424.451721,62.804714 
	C407.747345,48.100319 389.404327,35.937271 369.473450,26.273952 
	C348.444641,16.078289 326.506805,8.342620 303.235718,4.961379 
	C295.304932,3.809052 287.351013,2.816135 279.203827,1.375191 
	C356.927032,1.000000 434.854095,1.000000 513.000000,1.000000 
	C513.000000,78.687424 513.000000,156.375061 513.000000,234.531342 
z"/>
<path fill="#4B4B55" opacity="1.000000" stroke="none" 
	d="
M235.468658,513.000000 
	C233.695221,512.599121 232.390442,512.198181 230.929581,511.490417 
	C231.083481,509.228363 231.556335,507.283325 231.678680,505.316437 
	C233.156570,481.557983 234.493332,457.790405 236.055328,434.037628 
	C237.014481,419.452148 235.833679,403.779144 244.027405,391.319977 
	C251.871979,379.391754 248.173401,371.057648 241.055313,361.661102 
	C246.254105,358.798248 251.271286,356.238525 256.519165,353.738037 
	C256.749878,353.797302 257.226166,353.804779 257.226166,353.804779 
	C257.226166,353.804779 257.688843,353.691498 258.037933,353.863312 
	C263.287231,356.681213 268.187439,359.327301 272.878693,362.247986 
	C270.216461,366.476471 267.904877,370.528351 265.260284,374.349823 
	C263.489319,376.908905 263.603058,378.949036 265.274689,381.538269 
	C271.127167,390.603302 275.175049,400.519409 275.968506,411.282196 
	C278.438019,444.778534 280.507263,478.304352 282.731750,511.818787 
	C281.243256,511.978149 279.754730,512.137512 278.133118,512.648438 
	C263.979095,513.000000 249.958206,513.000000 235.468658,513.000000 
z"/>
<path fill="#F3B382" opacity="1.000000" stroke="none" 
	d="
M220.214447,303.983063 
	C214.742477,299.160583 209.164932,294.451874 203.820511,289.491974 
	C192.648605,279.123779 185.025146,266.316467 179.036942,252.468597 
	C177.726898,249.439056 176.808243,247.337097 172.473465,247.351059 
	C169.692276,247.360031 165.503601,244.586502 164.339539,241.987961 
	C156.808258,225.175644 152.943130,207.726364 158.472382,188.872284 
	C161.544418,187.128754 164.256653,185.834839 167.354446,184.356979 
	C169.908524,196.878387 169.174911,209.390366 178.614243,219.035828 
	C181.095306,203.891693 178.163513,188.201385 186.773239,173.710480 
	C190.485092,177.655914 193.379059,180.731995 196.968552,184.547379 
	C196.420364,178.467545 195.857925,173.550476 195.556839,168.617462 
	C194.914612,158.094864 195.135010,147.613998 198.874741,137.581940 
	C201.039871,131.773849 204.535461,127.143723 211.177429,125.908432 
	C223.041626,157.855499 233.876938,171.248581 247.943527,171.319275 
	C244.621109,158.624268 239.809067,146.255524 239.391083,131.894821 
	C258.207306,142.064468 272.154968,155.205475 281.033234,173.974670 
	C281.787811,167.828110 282.028931,161.776794 281.721130,155.753510 
	C281.402649,149.520752 280.551483,143.315201 279.813141,135.889328 
	C291.771423,145.428757 293.243439,157.919724 293.502716,171.237518 
	C301.931824,167.028564 304.795044,159.928253 306.453796,151.540436 
	C312.324829,161.596680 313.530518,171.751831 311.748718,182.467026 
	C312.140198,182.618652 312.531677,182.770264 312.923187,182.921890 
	C314.848694,181.379272 316.774231,179.836655 318.887695,178.143463 
	C331.450226,187.019470 335.166962,200.030563 335.430115,215.674866 
	C337.059387,213.549423 337.862213,212.542526 338.622131,211.504227 
	C343.518951,204.813416 345.005463,197.031570 346.064453,189.041473 
	C346.258911,187.574371 347.927429,186.302658 349.235870,185.095276 
	C350.683594,185.653976 351.810974,186.058151 353.056702,186.596710 
	C353.333801,186.922409 353.535156,187.041931 353.779144,187.089645 
	C355.432190,192.025375 358.895569,197.156708 358.387512,201.858932 
	C357.042358,214.309174 354.379028,226.670807 351.420654,238.868927 
	C350.060303,244.478012 345.915222,248.195221 339.188568,247.735336 
	C338.084259,247.659851 336.293213,249.595200 335.722168,250.974792 
	C328.674042,268.002197 318.470367,282.774292 304.643066,294.979004 
	C301.287354,297.940948 297.685028,300.623444 293.662048,303.788635 
	C289.019196,306.295044 284.974152,308.581085 280.789673,310.574402 
	C267.903534,316.712982 254.574265,318.995026 240.896820,313.644012 
	C233.825226,310.877319 227.097534,307.231598 220.214447,303.983063 
M232.330490,271.596130 
	C245.203842,285.939056 270.489441,285.641663 281.630768,270.439545 
	C275.493225,265.292603 269.022797,262.422394 260.676971,265.343811 
	C257.860504,266.329681 254.156082,265.516083 251.041656,264.763123 
	C244.118011,263.089203 236.518982,265.369446 232.330490,271.596130 
z"/>
<path fill="#3B3531" opacity="1.000000" stroke="none" 
	d="
M348.915527,184.940750 
	C347.927429,186.302658 346.258911,187.574371 346.064453,189.041473 
	C345.005463,197.031570 343.518951,204.813416 338.622131,211.504227 
	C337.862213,212.542526 337.059387,213.549423 335.430115,215.674866 
	C335.166962,200.030563 331.450226,187.019470 318.887695,178.143463 
	C316.774231,179.836655 314.848694,181.379272 312.923187,182.921890 
	C312.531677,182.770264 312.140198,182.618652 311.748718,182.467026 
	C313.530518,171.751831 312.324829,161.596680 306.453796,151.540436 
	C304.795044,159.928253 301.931824,167.028564 293.502716,171.237518 
	C293.243439,157.919724 291.771423,145.428757 279.813141,135.889328 
	C280.551483,143.315201 281.402649,149.520752 281.721130,155.753510 
	C282.028931,161.776794 281.787811,167.828110 281.033234,173.974670 
	C272.154968,155.205475 258.207306,142.064468 239.391083,131.894821 
	C239.809067,146.255524 244.621109,158.624268 247.943527,171.319275 
	C233.876938,171.248581 223.041626,157.855499 211.177429,125.908432 
	C204.535461,127.143723 201.039871,131.773849 198.874741,137.581940 
	C195.135010,147.613998 194.914612,158.094864 195.556839,168.617462 
	C195.857925,173.550476 196.420364,178.467545 196.968552,184.547379 
	C193.379059,180.731995 190.485092,177.655914 186.773239,173.710480 
	C178.163513,188.201385 181.095306,203.891693 178.614243,219.035828 
	C169.174911,209.390366 169.908524,196.878387 167.354446,184.356979 
	C164.256653,185.834839 161.544418,187.128754 158.460724,188.506134 
	C157.542404,176.514633 156.995544,164.439697 156.367386,150.569427 
	C151.605331,155.429153 147.591049,159.525757 143.182404,164.024826 
	C143.503067,155.567490 145.784409,148.010498 150.032303,141.304642 
	C154.252411,134.642670 159.332260,128.525330 164.186218,121.964890 
	C161.572784,122.236420 158.886932,122.515480 156.201065,122.794540 
	C155.843231,122.414062 155.485382,122.033592 155.127548,121.653122 
	C159.379425,116.137192 163.631302,110.621254 168.157303,104.749702 
	C165.327286,104.953041 162.605042,105.148636 159.895050,105.343346 
	C160.069702,98.274269 161.844193,95.881355 177.360626,82.128098 
	C174.546646,82.128098 172.210251,82.128098 169.425354,82.053085 
	C168.976852,81.978065 168.928055,81.927322 168.928055,81.927322 
	C173.040375,73.812737 180.728363,70.675018 188.645096,68.031364 
	C192.215225,66.839172 196.000854,66.292336 198.502090,65.722870 
	C198.502090,61.532619 197.905457,57.706604 198.682602,54.183632 
	C199.357574,51.123833 201.857971,50.282761 205.375320,51.585739 
	C210.766006,53.582668 216.467896,54.739494 221.901871,56.215973 
	C228.760483,41.309105 242.536987,34.778553 263.227814,36.060886 
	C265.697754,41.662525 267.200470,42.203011 272.973206,40.102730 
	C282.713501,36.558952 292.621704,37.459709 302.371704,39.154556 
	C298.757538,42.533936 295.072571,45.979515 290.936371,49.847023 
	C301.724304,52.672344 311.254395,55.168247 321.314392,57.802933 
	C320.326691,59.015251 320.019623,59.374096 319.732269,59.748119 
	C318.790924,60.973530 317.856720,62.204437 316.919769,63.433235 
	C318.160553,64.311806 319.281799,65.543663 320.661835,66.010757 
	C328.739014,68.744606 335.701569,72.915039 340.757538,80.664398 
	C337.339142,80.323685 334.369812,80.027725 331.400513,79.731773 
	C342.521667,84.879631 351.122467,92.025497 355.221924,104.245827 
	C350.668304,102.152100 346.508820,100.239616 342.349365,98.327126 
	C342.031158,98.735901 341.712921,99.144676 341.394684,99.553459 
	C352.041168,106.761345 357.043304,117.298714 360.199158,129.278137 
	C356.745300,129.109589 353.818451,128.966736 349.244995,128.743546 
	C358.888855,136.855988 365.889496,144.922974 362.184235,157.760193 
	C359.536865,154.244904 357.197968,151.139267 354.420868,147.688385 
	C353.822357,147.712524 353.662079,148.081924 353.501831,148.451309 
	C353.636932,161.037857 353.772095,173.624390 353.843201,186.650299 
	C353.535156,187.041931 353.333801,186.922409 353.096741,186.123901 
	C352.101562,180.665741 351.184631,175.814758 350.267700,170.963791 
	C350.037292,171.039261 349.806915,171.114731 349.576508,171.190201 
	C349.356171,175.773712 349.135864,180.357239 348.915527,184.940750 
z"/>
<path fill="#D4D6D8" opacity="1.000000" stroke="none" 
	d="
M240.873718,361.964233 
	C248.173401,371.057648 251.871979,379.391754 244.027405,391.319977 
	C235.833679,403.779144 237.014481,419.452148 236.055328,434.037628 
	C234.493332,457.790405 233.156570,481.557983 231.678680,505.316437 
	C231.556335,507.283325 231.083481,509.228363 230.557098,511.491699 
	C216.344788,509.282806 202.144806,507.569366 188.396301,504.078125 
	C161.477188,497.242279 136.587738,485.545654 113.637032,469.840729 
	C98.679596,459.605438 84.730782,448.167755 72.188400,434.623901 
	C74.357155,424.352997 77.130402,414.435577 78.879257,404.340637 
	C81.286690,390.444153 89.759918,381.607391 101.337059,374.935547 
	C121.656624,363.225433 143.973862,357.401489 166.734055,353.052124 
	C176.844284,351.120087 187.092728,349.911224 197.700912,348.709259 
	C198.537674,349.920074 198.735321,351.036987 199.399994,351.633789 
	C205.459686,357.074371 211.683945,362.333679 217.681595,367.840424 
	C220.527649,370.453552 223.010620,370.853668 226.498260,368.842194 
	C231.086258,366.196106 236.063721,364.225372 240.873718,361.964233 
z"/>
<path fill="#D4D6D8" opacity="1.000000" stroke="none" 
	d="
M283.177582,511.863373 
	C280.507263,478.304352 278.438019,444.778534 275.968506,411.282196 
	C275.175049,400.519409 271.127167,390.603302 265.274689,381.538269 
	C263.603058,378.949036 263.489319,376.908905 265.260284,374.349823 
	C267.904877,370.528351 270.216461,366.476471 273.230225,362.307831 
	C278.862427,364.549805 283.848419,367.217102 289.057495,369.336029 
	C290.635803,369.978027 293.355469,369.789642 294.650543,368.800659 
	C299.510010,365.089752 304.098969,361.000763 308.584839,356.833405 
	C311.308289,354.303284 313.656433,351.369171 316.173187,348.616547 
	C349.401794,352.349152 382.018799,358.388550 411.847931,374.584167 
	C424.084015,381.227753 432.950897,390.422729 435.251617,404.997833 
	C436.778320,414.669495 439.325867,424.179993 441.690308,434.054077 
	C425.406158,452.563629 406.005981,467.229706 384.830719,479.579437 
	C360.798798,493.595306 334.987823,503.073303 307.733490,508.502808 
	C299.786102,510.086090 291.664917,510.797119 283.177582,511.863373 
z"/>
<path fill="#E2A379" opacity="1.000000" stroke="none" 
	d="
M220.251129,304.380432 
	C227.097534,307.231598 233.825226,310.877319 240.896820,313.644012 
	C254.574265,318.995026 267.903534,316.712982 280.789673,310.574402 
	C284.974152,308.581085 289.019196,306.295044 293.456726,304.063354 
	C293.204956,313.394653 292.624481,322.805450 292.108276,333.028381 
	C290.881927,335.302643 289.868713,337.291687 288.255493,338.141022 
	C278.140991,343.465851 267.892792,348.536652 257.688843,353.691498 
	C257.688843,353.691498 257.226166,353.804779 257.226166,353.804779 
	C257.226166,353.804779 256.749878,353.797302 256.283661,353.485107 
	C245.696320,348.152863 235.588379,343.105927 225.443665,338.134064 
	C223.258423,337.063110 221.113022,336.141724 221.909180,333.070496 
	C221.368729,323.639587 220.828278,314.208710 220.251129,304.380432 
z"/>
<path fill="#F2F8FD" opacity="1.000000" stroke="none" 
	d="
M221.509003,333.075500 
	C221.113022,336.141724 223.258423,337.063110 225.443665,338.134064 
	C235.588379,343.105927 245.696320,348.152863 256.052948,353.425842 
	C251.271286,356.238525 246.254105,358.798248 241.055313,361.661102 
	C236.063721,364.225372 231.086258,366.196106 226.498260,368.842194 
	C223.010620,370.853668 220.527649,370.453552 217.681595,367.840424 
	C211.683945,362.333679 205.459686,357.074371 199.399994,351.633789 
	C198.735321,351.036987 198.537674,349.920074 198.110428,348.706726 
	C202.541458,344.648987 206.781754,340.639160 211.506241,337.318146 
	C214.313095,335.345093 217.882370,334.456635 221.509003,333.075500 
z"/>
<path fill="#F2F8FD" opacity="1.000000" stroke="none" 
	d="
M258.037933,353.863312 
	C267.892792,348.536652 278.140991,343.465851 288.255493,338.141022 
	C289.868713,337.291687 290.881927,335.302643 292.132629,333.457153 
	C296.360657,332.697601 299.678040,334.389893 302.774384,337.294556 
	C306.876892,341.143127 311.344147,344.602844 315.913940,348.423096 
	C313.656433,351.369171 311.308289,354.303284 308.584839,356.833405 
	C304.098969,361.000763 299.510010,365.089752 294.650543,368.800659 
	C293.355469,369.789642 290.635803,369.978027 289.057495,369.336029 
	C283.848419,367.217102 278.862427,364.549805 273.439209,362.033203 
	C268.187439,359.327301 263.287231,356.681213 258.037933,353.863312 
z"/>
<path fill="#3B3531" opacity="1.000000" stroke="none" 
	d="
M169.000885,82.003761 
	C168.961136,82.150101 168.897354,82.270744 168.833572,82.391388 
	C168.757156,82.243927 168.680725,82.096466 168.766174,81.938171 
	C168.928055,81.927322 168.976852,81.978065 169.000885,82.003761 
z"/>
<path fill="#D99465" opacity="1.000000" stroke="none" 
	d="
M281.989685,271.012115 
	C270.489441,285.641663 245.203842,285.939056 232.636703,271.298096 
	C249.291840,271.004089 265.640747,271.008087 281.989685,271.012115 
z"/>
<path fill="#E5A173" opacity="1.000000" stroke="none" 
	d="
M281.810242,270.725830 
	C265.640747,271.008087 249.291840,271.004089 232.475403,271.004700 
	C236.518982,265.369446 244.118011,263.089203 251.041656,264.763123 
	C254.156082,265.516083 257.860504,266.329681 260.676971,265.343811 
	C269.022797,262.422394 275.493225,265.292603 281.810242,270.725830 
z"/>
<path fill="#DB732E" opacity="1.000000" stroke="none" 
	d="
M349.235870,185.095276 
	C349.135864,180.357239 349.356171,175.773712 349.576508,171.190201 
	C349.806915,171.114731 350.037292,171.039261 350.267700,170.963791 
	C351.184631,175.814758 352.101562,180.665741 352.978424,185.989532 
	C351.810974,186.058151 350.683594,185.653976 349.235870,185.095276 
z"/>
<path fill="#F47C2C" opacity="1.000000" stroke="none" 
	d="
M353.690186,148.276901 
	C353.662079,148.081924 353.822357,147.712524 354.114502,147.543732 
	C354.123749,147.863724 354.001129,147.983109 353.690186,148.276901 
z"/>
</svg>